<svg width="140" height="81" viewBox="0 0 140 81" fill="none" xmlns="http://www.w3.org/2000/svg">
<path d="M16.5196 0.0193404H25.1201C20.7195 4.42 16.92 9.09932 13.6397 14.0194L16.5196 0.0193404ZM20.5996 29.2195C24.1201 21.4201 29.2805 14.1396 35.9405 7.539C38.6767 4.81253 41.619 2.29798 44.7404 0.019613H58.3398C57.9402 0.219829 57.4997 0.420316 57.0593 0.61917C51.1596 3.5001 45.7597 7.35949 40.9802 12.0791C35.9402 17.0791 31.9198 22.5195 29.0193 28.2792C26.2192 33.8803 24.4998 39.6397 23.9401 45.3988C22.8396 56.9999 26.6197 67.7603 34.5795 75.66C36.2349 77.3088 38.066 78.7692 40.0396 80.0195H25.9597C22.8202 76.5061 20.316 72.4726 18.5593 68.0997C16.5193 63.02 15.4997 57.5392 15.4997 51.8008C15.4997 44.3013 17.2194 36.7198 20.5993 29.1991V29.2195H20.5996ZM38.5997 18.6192C39.9434 16.9982 41.3654 15.4433 42.8606 13.9601C49.66 7.21975 57.5801 2.55949 65.6601 0.0193404H73.1601L72.2814 4.21978C62.9805 5.55946 53.8801 10.2194 46.5996 17.4795C46.1999 17.8799 45.8398 18.239 45.4805 18.6192H38.5997ZM81.5 51.9395C78.8204 54.6188 75.6992 56.539 72.5587 57.7381L73.42 53.5387C75.7324 52.5407 77.8359 51.1168 79.621 49.3399C82.6212 46.42 84.4201 42.738 84.6994 39.039C85.0001 35.3197 83.8012 31.8997 81.3011 29.3995C80.5624 28.6848 79.7267 28.0781 78.8206 27.5995L79.7408 23.0994C81.5395 23.7796 83.1799 24.8 84.5392 26.159C87.4201 29.0193 88.9415 32.6191 88.9415 36.5994C88.9415 41.7598 86.3014 47.1988 81.5392 51.9607L81.5 51.9395ZM91.58 36.579C91.58 31.8798 89.7813 27.6396 86.379 24.2789C84.6405 22.5623 82.5354 21.2637 80.2186 20.4795L81.2813 15.3997C84.6795 16.1995 87.6794 17.8799 90.0801 20.3002C99.4006 29.5001 97.6404 45.1599 86.0197 56.6991C81.5392 61.0995 76.2595 64.1992 70.9006 65.6192L71.9005 60.7187C76.0996 59.4806 80.0391 57.1189 83.3594 53.8204C88.6405 48.5783 91.5587 42.4198 91.5587 36.5792H91.58V36.579ZM82.0001 38.8195C81.801 41.9197 80.2595 45.0194 77.7403 47.4996C76.6526 48.5701 75.4298 49.4919 74.0996 50.238L78.2186 30.3399C78.6599 30.6188 79.0195 30.9394 79.4199 31.2788C81.3401 33.2194 82.2815 35.88 82.0587 38.8797L82.0001 38.8195ZM4.67987 74.1599C5.48155 76.1694 6.41044 78.1268 7.46 80.0192H0L2.53988 67.7377C3.10075 69.9158 3.80164 72.0547 4.63955 74.1402L4.67987 74.1599ZM12.7999 51.8201C12.7999 57.8789 13.92 63.6988 16.0802 69.058C17.6626 73.0073 19.8183 76.7014 22.4805 80.019H10.5401C9.22953 77.8237 8.09279 75.5306 7.13966 73.1593C5.57253 69.2536 4.49709 65.1692 3.94057 60.9996L12.0001 21.8197C16.0001 14.5 21.2002 7.61909 27.5597 1.33967C28.0198 0.879859 28.4807 0.439385 28.9602 0H40.4008C38.187 1.7638 36.0707 3.64665 34.0598 5.63954C27.1604 12.4793 21.8208 20.039 18.1602 28.1394C14.6201 35.9396 12.8203 43.9393 12.8203 51.7793L12.7999 51.8201ZM35.3205 47.7793C35.3205 41.7791 37.0195 35.7389 40.2401 30.0389H45.96C42.9006 35.1189 41.2196 40.6991 41.2196 46.1599C41.2196 47.0994 41.3 48.0193 41.4201 48.9196H35.3605C35.3401 48.5467 35.3262 48.1721 35.3205 47.8009V47.7793ZM62.3605 30.0195C61.7871 30.4758 61.239 30.9626 60.7195 31.4793C57.16 35.0192 55.1998 39.279 55.1998 43.48C55.1998 45.4394 55.6395 47.2787 56.4404 48.879H51.7C51.3244 47.5113 51.1359 46.0975 51.1397 44.6791C51.1397 39.6795 53.4202 34.3995 57.4202 30.0389H62.3801L62.3605 30.0195ZM43.9006 46.1403C43.9006 40.6794 45.7407 35.0595 49.0997 30.0391H53.9405C52.5559 31.7891 51.3936 33.7043 50.4805 35.7392C49.1397 38.6991 48.4805 41.7383 48.4805 44.738C48.4805 46.1403 48.62 47.578 48.9403 48.9395H44.0594C43.96 48.0193 43.9006 47.0994 43.9006 46.1403ZM87.9004 58.5782C100.621 45.9801 102.379 28.7196 92.0196 18.4394C89.2185 15.6795 85.7601 13.7795 81.8596 12.8397L83.0584 6.95987C88.3201 7.87978 93.1207 10.1587 96.9003 13.9197C101.961 18.9197 104.699 25.1187 104.941 32.0388C105 33.9119 104.892 35.786 104.621 37.6394C103.379 46.119 98.7597 54.6796 91.6206 61.738C85.3787 67.9395 77.3396 72.2383 69.2593 73.8204L70.3604 68.4996C76.5995 67.1403 82.7601 63.6991 87.9608 58.5782H87.9004ZM98.8008 12.0195C95.5993 8.88004 91.7598 6.57906 87.34 5.21977C86.1191 4.85066 84.8767 4.55647 83.6209 4.33991L84.461 0.019613H92.2596C96.5197 1.55487 100.396 3.99805 103.621 7.17998C106.98 10.5392 109.539 14.3801 111.219 18.6192H107.66L106.401 24.699L106.301 24.2999C104.901 19.699 102.36 15.5997 98.7602 12.0195H98.8008ZM114.14 18.6192C112.34 13.6193 109.461 9.15898 105.539 5.29986C103.457 3.2375 101.109 1.46198 98.5586 0.019613H113.121C118.026 5.2481 121.496 11.6555 123.199 18.6192H114.099H114.14ZM70.5995 12.5196C65.6601 13.4202 60.8604 15.5196 56.5401 18.5993H49.2596C55.9405 12.2388 63.92 8.31916 71.7186 6.99992L70.5595 12.5196H70.5995ZM70 15.3194L69.3204 18.5993H61.4803C64.1474 17.1109 67.0175 16.0202 69.9997 15.3594V15.3194H70ZM26.5995 45.6598C27.4805 36.7599 31.4006 27.7196 37.7999 19.659L35.5994 30.0195H37.1998C34.1998 35.7599 32.5995 41.82 32.5995 47.7793C32.5995 48.1795 32.5995 48.5195 32.5995 48.8981H31.6796L29.2399 61.0385H35.5798C36.9571 63.8919 38.8105 66.4876 41.0592 68.7178C45.4596 73.0773 50.9801 75.8003 57.2592 76.7594L56.5992 80.0187H45.6794C42.2556 78.5384 39.1366 76.4371 36.4801 73.8199C29.0797 66.48 25.5993 56.4799 26.6197 45.6184L26.5995 45.6598ZM60.5596 61.0995L59.5596 66C56.0634 65.2068 52.8359 63.5095 50.2002 61.0783H60.5997L60.5596 61.1186V61.0995ZM58.9601 68.5996L57.8206 74.1988C52.0596 73.3203 47.0196 70.8401 43.0197 66.8595C41.2815 65.1485 39.8001 63.1954 38.6201 61.0587H46.5197C46.9202 61.5193 47.3206 61.9396 47.7197 62.3594C50.9201 65.5585 54.7196 67.6404 59.0001 68.5996H58.9601ZM95 80.0192H83.7184C88.4705 77.6872 92.8791 74.7128 96.8204 71.1795L95 80.0192ZM113.6 33.0593C113.539 34.0993 113.461 35.1589 113.34 36.2194C112.679 41.4999 111 46.8202 108.379 51.9198H102.379C104.879 47.4198 106.52 42.7184 107.219 37.9794C107.461 36.3194 107.58 34.6795 107.58 33.0593H113.58H113.6ZM129.24 0.0193404C130.49 2.16287 131.58 4.39548 132.5 6.69919C134.02 10.5352 135.078 14.5351 135.66 18.619H125.942C124.367 11.7713 121.186 5.39547 116.66 0.0193404H129.26H129.24ZM132.301 0.0193404H140L137.32 13.0595C136.231 8.51284 134.551 4.1288 132.321 0.0193404H132.301ZM124.4 33.0593C124.34 33.6588 124.281 34.2592 124.199 34.8593C123.599 40.6187 122.039 46.3593 119.6 51.9196H111.359C113.76 46.9196 115.36 41.7184 115.961 36.5193C116.121 35.3796 116.218 34.2194 116.281 33.0593H124.379H124.4ZM126.879 35.1589C126.942 34.46 127 33.7599 127.08 33.0593H132.48L128.68 51.9395H122.48C124.781 46.4394 126.281 40.8007 126.879 35.1393V35.1589H126.879ZM68.6794 76.5583C77.6403 75.0781 86.5994 70.4606 93.5192 63.5585C95.9215 61.1916 98.0893 58.5972 99.9996 55.8201L97.8008 66.5778C97.4998 66.8592 97.1988 67.14 96.9414 67.4201C91.2697 73.0228 84.4449 77.3238 76.9413 80.0192H67.9404L68.6598 76.578L68.6794 76.5583ZM62.5996 33.3595C63.6449 32.3172 64.8216 31.4156 66.0997 30.6796L62.4005 48.8793H59.5403C58.4406 47.3789 57.8803 45.5391 57.8803 43.4803C57.88 39.9796 59.54 36.3801 62.5996 33.3595Z" fill="white"/>
</svg>
